HIERARCHY
ROOT Hips
{
	OFFSET 0.00000 0.00000 0.00000
	CHANNELS 6 Xposition Yposition Zposition Zrotation Yrotation Xrotation 
	JOINT LHipJoint
	{
		OFFSET 0 0 0
		CHANNELS 3 Zrotation Yrotation Xrotation
		JOINT LeftHip
		{
			OFFSET 1.37590 -1.78394 0.89329
			CHANNELS 3 Zrotation Yrotation Xrotation
			JOINT LeftKnee
			{
				OFFSET 2.47928 -6.81178 0.00000
				CHANNELS 3 Zrotation Yrotation Xrotation
				JOINT LeftAnkle
				{
					OFFSET 2.63345 -7.23535 0.00000
					CHANNELS 3 Zrotation Yrotation Xrotation
					JOINT LeftToe
					{
						OFFSET 0.23938 -0.65768 2.27012
						CHANNELS 3 Zrotation Yrotation Xrotation
						End Site
						{
							OFFSET 0.00000 -0.00000 1.18363
						}
					}
				}
			}
		}
	}
	JOINT RHipJoint
	{
		OFFSET 0 0 0
		CHANNELS 3 Zrotation Yrotation Xrotation
		JOINT RightHip
		{
			OFFSET -1.33617 -1.78394 0.89329
			CHANNELS 3 Zrotation Yrotation Xrotation
			JOINT RightKnee
			{
				OFFSET -2.56922 -7.05888 0.00000
				CHANNELS 3 Zrotation Yrotation Xrotation
				JOINT RightAnkle
				{
					OFFSET -2.56568 -7.04915 0.00000
					CHANNELS 3 Zrotation Yrotation Xrotation
					JOINT RightToe
					{
						OFFSET -0.27533 -0.75646 2.18105
						CHANNELS 3 Zrotation Yrotation Xrotation
						End Site
						{
							OFFSET -0.00000 -0.00000 1.15233
						}
					}
				}
			}
		}
	}
	JOINT lowerback
	{
		OFFSET 0 0 0
		CHANNELS 3 Zrotation Yrotation Xrotation
		JOINT Chest
		{
			OFFSET 0.06190 2.15152 -0.00935
			CHANNELS 3 Zrotation Yrotation Xrotation
			JOINT Chest2
			{
				OFFSET 0.06334 2.15332 0.00872
				CHANNELS 3 Zrotation Yrotation Xrotation
				JOINT lowerneck
				{
					OFFSET 0 0 0
					CHANNELS 3 Zrotation Yrotation Xrotation
					JOINT Neck
					{
						OFFSET -0.04202 1.66908 0.23524
						CHANNELS 3 Zrotation Yrotation Xrotation
						JOINT Head
						{
							OFFSET 0.07510 1.69357 -0.24440
							CHANNELS 3 Zrotation Yrotation Xrotation
							End Site
							{
								OFFSET 0.02556 1.71719 -0.11000
							}
						}
					}
				}
				JOINT LeftCollar
				{
					OFFSET 0 0 0
					CHANNELS 3 Zrotation Yrotation Xrotation
					JOINT LeftShoulder
					{
						OFFSET 3.67168 1.26306 -0.41342
CHANNELS 3 Zrotation Xrotation Yrotation
						JOINT LeftElbow
						{
OFFSET 0 -4.685100 -0.000000
CHANNELS 3 Zrotation Xrotation Yrotation
							JOINT LeftWrist
							{
OFFSET 0 -3.396260 -0.000000
CHANNELS 3 Zrotation Xrotation Yrotation
								JOINT lhand
								{
									OFFSET 0 0 0
CHANNELS 3 Zrotation Xrotation Yrotation
									JOINT LFingers
									{
OFFSET 0 -0.486080 -0.000000
CHANNELS 3 Zrotation Xrotation Yrotation
										End Site
										{
OFFSET 0 -0.391890 -0.000000
										}
									}
								}
								JOINT LThumb
								{
OFFSET 0 0.000000 0.000000
CHANNELS 3 Zrotation Xrotation Yrotation
									End Site
									{
OFFSET 0 -0.397870 0.397870
									}
								}
							}
						}
					}
				}
				JOINT RightCollar
				{
					OFFSET 0 0 0
					CHANNELS 3 Zrotation Yrotation Xrotation
					JOINT RightShoulder
					{
						OFFSET -3.04136 1.42992 -0.76390
CHANNELS 3 Zrotation Xrotation Yrotation
						JOINT RightElbow
						{
OFFSET 0 -5.555760 -0.000000
CHANNELS 3 Zrotation Xrotation Yrotation
							JOINT RightWrist
							{
OFFSET 0 -3.327740 -0.000000
CHANNELS 3 Zrotation Xrotation Yrotation
								JOINT rhand
								{
									OFFSET 0 0 0
CHANNELS 3 Zrotation Xrotation Yrotation
									JOINT RFingers
									{
OFFSET 0 -0.507630 -0.000000
CHANNELS 3 Zrotation Xrotation Yrotation
										End Site
										{
OFFSET 0 -0.409260 -0.000000
										}
									}
								}
								JOINT RThumb
								{
OFFSET 0 0.000000 0.000000
CHANNELS 3 Zrotation Xrotation Yrotation
									End Site
									{
OFFSET 0 -0.415510 0.415510
									}
								}
							}
						}
					}
				}
			}
		}
	}
}
MOTION
Frames: 9
Frame Time: 0.008333333333333333
33.535900 17.577600 6.591900 165.302000 -86.322100 -159.310000 0.000000 0.000000 0.000000 -24.572400 -4.238700 -2.744100 0.681800 5.279300 14.706900 0.438800 3.180400 -14.085500 0.502400 -4.544100 -12.612600 0.000000 0.000000 0.000000 12.930700 3.672800 -36.067300 -2.141100 -9.154000 26.278200 0.663000 -14.601000 -8.874600 -0.048700 -1.424000 3.916200 -1.026400 -0.359100 0.698100 2.154200 -0.489800 -0.210700 2.790900 -0.243300 -0.579900 -4.832100 -3.385900 -8.915900 5.400000 -4.579600 10.041800 2.143700 -2.128400 4.706400 0.000000 0.000000 0.000000 -4.832600 -29.589400 -27.216500 39.055100 -47.500000 17.739400 19.142500 -35.303200 -25.965900 0.000000 0.000000 0.000000 -7.125000 0.000000 0.000000 -11.796200 56.860000 3.461700 0.000000 0.000000 0.000000 -19.615000 -32.281900 41.862900 -49.396600 -52.749200 -25.693100 -14.060900 6.630000 15.493700 0.000000 0.000000 0.000000 7.125000 0.000000 -0.000000 12.694000 45.536700 -0.170900
33.470888 17.574178 6.584629 175.986267 -86.056918 -169.544456 0.000000 0.000000 0.000000 -23.584169 -4.187018 -3.067451 0.688216 5.303608 14.776688 0.453699 3.379785 -14.412985 0.483295 -4.457702 -12.368162 0.000000 0.000000 0.000000 13.432621 5.088102 -36.053684 -1.878912 -8.600112 24.558153 0.686382 -14.857343 -9.079118 -0.025532 -0.993935 2.732505 -0.467165 -0.184023 0.813511 2.373973 -0.250281 -0.411511 2.700581 -0.124182 -0.864614 -4.622735 -3.513216 -9.504433 5.365070 -4.762020 10.259648 2.075765 -2.200612 4.875988 0.000000 0.000000 0.000000 -5.019582 -29.428437 -28.487520 38.260053 -47.001572 17.156499 19.461004 -35.292935 -26.425050 0.000000 0.000000 0.000000 -7.125000 0.000000 0.000000 -11.697470 57.387798 3.581246 0.000000 0.000000 0.000000 -19.585702 -31.763084 42.030064 -48.622012 -52.422356 -25.078405 -13.282249 6.677619 15.156163 0.000000 0.000000 0.000000 7.125000 0.000000 0.000000 13.298501 45.108060 -0.033390
33.392210 17.567691 6.580551 179.697838 -85.954570 -173.013110 0.000000 0.000000 0.000000 -23.255491 -4.110730 -3.051724 0.685947 5.295009 14.752055 0.474344 3.402204 -14.700752 0.466830 -4.382117 -12.154418 0.000000 0.000000 0.000000 13.442933 5.944660 -35.873404 -1.631198 -8.039923 22.841809 0.680432 -14.843913 -9.283338 -0.014965 -0.787920 2.165535 -0.318230 -0.167778 0.656937 2.518523 -0.229236 -0.510833 2.765051 -0.114301 -0.879939 -4.671051 -3.549515 -9.359511 5.501446 -4.820132 10.111344 2.124389 -2.226337 4.813735 0.000000 0.000000 0.000000 -5.196432 -29.149085 -29.562373 37.554150 -46.549717 16.641924 19.669376 -35.178669 -27.039073 0.000000 0.000000 0.000000 -7.125000 0.000000 0.000000 -11.806358 58.046756 3.805899 0.000000 0.000000 0.000000 -19.524816 -31.157339 42.388841 -47.951340 -52.133571 -24.547746 -12.529566 6.784666 14.834335 0.000000 0.000000 0.000000 7.125000 0.000000 0.000000 13.880439 44.701345 0.107227
33.303220 17.558874 6.578307 178.569356 -85.976327 -171.791379 0.000000 0.000000 0.000000 -23.382300 -4.017928 -2.791947 0.677793 5.264103 14.663427 0.499365 3.296595 -14.961327 0.454889 -4.326601 -11.997473 0.000000 0.000000 0.000000 13.110051 6.406590 -35.568512 -1.402157 -7.485545 21.164268 0.650887 -14.614668 -9.494258 -0.011942 -0.693470 1.905807 -0.443689 -0.250464 0.383360 2.598174 -0.343762 -0.534702 2.918102 -0.171963 -0.744237 -4.840688 -3.546039 -8.889566 5.712132 -4.821889 9.788230 2.225459 -2.231181 4.644958 0.000000 0.000000 0.000000 -5.349169 -28.789102 -30.601212 36.955528 -46.158567 16.208104 19.783691 -35.023006 -27.691270 0.000000 0.000000 0.000000 -7.125000 0.000000 0.000000 -12.042414 58.723364 4.078142 0.000000 0.000000 0.000000 -19.429848 -30.481000 42.798351 -47.401751 -51.892044 -24.114216 -11.914963 6.946654 14.576519 0.000000 0.000000 0.000000 7.125000 0.000000 0.000000 14.354806 44.376108 0.225941
33.209694 17.548965 6.574743 176.873474 -86.057236 -170.044172 0.000000 0.000000 0.000000 -23.553100 -3.925471 -2.468596 0.669524 5.232738 14.573536 0.526454 3.155093 -15.220235 0.454319 -4.324035 -11.990130 0.000000 0.000000 0.000000 12.729102 6.794953 -35.213082 -1.210043 -6.972859 19.637190 0.605550 -14.245124 -9.733777 -0.004956 -0.435061 1.195376 -0.559385 -0.299152 0.385214 2.619132 -0.409416 -0.529570 3.005569 -0.204184 -0.735683 -4.792785 -3.632151 -9.122955 5.751909 -4.937585 9.764207 2.218045 -2.279441 4.682810 0.000000 0.000000 0.000000 -5.430291 -28.425902 -32.039182 36.552337 -45.888823 15.917972 19.816054 -34.986507 -28.068726 0.000000 0.000000 0.000000 -7.125000 0.000000 0.000000 -12.225119 59.106453 4.253790 0.000000 0.000000 0.000000 -19.281931 -29.755100 42.882467 -47.063502 -51.739992 -23.848321 -11.800051 7.170205 14.540092 0.000000 0.000000 0.000000 7.125000 0.000000 0.000000 14.446407 44.327278 0.245188
33.119835 17.539564 6.570614 176.560063 -86.086514 -169.629215 0.000000 0.000000 0.000000 -23.586725 -3.835609 -2.226952 0.663568 5.209780 14.507852 0.553430 3.044570 -15.489753 0.447203 -4.290546 -11.895495 0.000000 0.000000 0.000000 12.409714 7.371050 -34.889309 -1.035421 -6.460964 18.131781 0.580865 -14.068675 -9.957948 -0.001525 -0.182124 0.500462 -0.602121 -0.332097 0.297855 2.671971 -0.455207 -0.515578 3.083839 -0.227828 -0.669009 -4.778399 -3.704214 -9.271307 5.827461 -5.034773 9.680089 2.229930 -2.319689 4.688781 0.000000 0.000000 0.000000 -5.512430 -28.110779 -33.435115 36.158062 -45.620659 15.635684 19.902532 -34.981439 -28.525294 0.000000 0.000000 0.000000 -7.125000 0.000000 0.000000 -12.403704 59.580163 4.458666 0.000000 0.000000 0.000000 -19.159180 -29.085007 42.984641 -46.678022 -51.563846 -23.546143 -11.516365 7.325648 14.421451 0.000000 0.000000 0.000000 7.125000 0.000000 0.000000 14.663560 44.179079 0.304442
33.029972 17.530020 6.566116 176.325788 -86.118132 -169.293195 0.000000 0.000000 0.000000 -23.608119 -3.743743 -1.989086 0.658249 5.189174 14.448959 0.581290 2.924330 -15.760262 0.438197 -4.247752 -11.774659 0.000000 0.000000 0.000000 12.085947 7.966678 -34.571460 -0.878430 -5.967290 16.691881 0.561784 -13.945481 -10.175251 -0.000665 0.067015 -0.183964 -0.638532 -0.366827 0.186397 2.726554 -0.503833 -0.485148 3.159991 -0.253426 -0.571677 -4.772450 -3.774018 -9.417499 5.910632 -5.127920 9.580923 2.245843 -2.357937 4.689988 0.000000 0.000000 0.000000 -5.578319 -27.800416 -34.855921 35.818346 -45.387413 15.393178 19.983998 -35.002356 -28.985788 0.000000 0.000000 0.000000 -7.125000 0.000000 0.000000 -12.596696 60.056037 4.672764 0.000000 0.000000 0.000000 -19.035573 -28.417220 43.058646 -46.325307 -51.401170 -23.270078 -11.230417 7.449357 14.313086 0.000000 0.000000 0.000000 7.125000 0.000000 0.000000 14.885477 44.040963 0.360818
32.938584 17.520040 6.561268 175.643586 -86.174804 -168.529728 0.000000 0.000000 0.000000 -23.667072 -3.647650 -1.723334 0.652974 5.168786 14.390718 0.610588 2.775984 -16.027939 0.428930 -4.203127 -11.648769 0.000000 0.000000 0.000000 11.729804 8.515291 -34.249820 -0.741918 -5.501939 15.346012 0.542964 -13.826078 -10.388109 -0.002376 0.312451 -0.858324 -0.695204 -0.410881 0.073980 2.770680 -0.565139 -0.432539 3.236623 -0.285647 -0.450207 -4.765892 -3.846087 -9.595499 5.990971 -5.222373 9.482976 2.260100 -2.396360 4.696903 0.000000 0.000000 0.000000 -5.618239 -27.477636 -36.333241 35.560720 -45.208415 15.209974 20.035181 -35.051115 -29.419703 0.000000 0.000000 0.000000 -7.125000 0.000000 0.000000 -12.814046 60.497793 4.889258 0.000000 0.000000 0.000000 -18.900202 -27.729957 43.080887 -46.043658 -51.269648 -23.050091 -11.010786 7.551367 14.254917 0.000000 0.000000 0.000000 7.125000 0.000000 0.000000 15.062907 43.959840 0.396104
32.846493 17.509639 6.555648 175.065404 -86.245111 -167.878012 0.000000 0.000000 0.000000 -23.707470 -3.554509 -1.455895 0.649667 5.156060 14.354196 0.641292 2.613723 -16.297584 0.418609 -4.152669 -11.506573 0.000000 0.000000 0.000000 11.401846 9.018641 -33.978995 -0.638862 -5.107082 14.215632 0.525059 -13.719045 -10.601600 -0.008374 0.567938 -1.560728 -0.740349 -0.453038 0.001413 2.814665 -0.623562 -0.376135 3.306648 -0.316533 -0.347080 -4.744855 -3.924412 -9.846664 6.048608 -5.323573 9.420313 2.262971 -2.437173 4.726379 0.000000 0.000000 0.000000 -5.620346 -27.105024 -37.900244 35.441835 -45.125003 15.125660 20.074416 -35.138952 -29.787691 0.000000 0.000000 0.000000 -7.125000 0.000000 0.000000 -13.012278 60.870460 5.082558 0.000000 0.000000 0.000000 -18.751829 -26.980422 43.020194 -45.888238 -51.196181 -22.928923 -10.882876 7.585482 14.295216 0.000000 0.000000 0.000000 7.125000 0.000000 0.000000 15.188397 43.985127 0.389853
